<svg version="1.1" xmlns="http://www.w3.org/2000/svg" width="32" height="32" viewBox="0 0 32 32"><path d="M9.281 6.412c.944 0 1.794.081 2.569.25.775.162 1.431.438 1.988.813.55.375.975.875 1.287 1.5.3.619.45 1.394.45 2.313 0 .994-.225 1.819-.675 2.481-.456.662-1.119 1.2-2.006 1.625 1.213.35 2.106.962 2.706 1.831.6.875.887 1.925.887 3.163 0 1-.194 1.856-.575 2.581a5.048 5.048 0 0 1-1.556 1.781c-.65.462-1.4.8-2.237 1.019-.831.219-1.688.331-2.575.331H0V6.412h9.281zm-.562 7.951c.769 0 1.406-.181 1.906-.55.5-.363.738-.963.738-1.787 0-.456-.081-.838-.244-1.131a1.813 1.813 0 0 0-.669-.688 2.643 2.643 0 0 0-.956-.344 5.871 5.871 0 0 0-1.113-.1h-4.05v4.6h4.388zm.237 8.381c.425 0 .831-.038 1.213-.125.387-.087.731-.219 1.019-.419.287-.194.531-.45.706-.788.175-.331.256-.756.256-1.275 0-1.012-.287-1.738-.856-2.175-.569-.431-1.325-.644-2.262-.644h-4.7v5.419h4.625zM22.663 22.675c.587.575 1.431.863 2.531.863.788 0 1.475-.2 2.044-.6s.913-.825 1.044-1.262h3.45c-.556 1.719-1.394 2.938-2.544 3.675-1.131.738-2.519 1.113-4.125 1.113-1.125 0-2.131-.181-3.038-.538a6.467 6.467 0 0 1-2.3-1.531 7.019 7.019 0 0 1-1.45-2.375c-.337-.919-.512-1.938-.512-3.038a8.3 8.3 0 0 1 .525-2.981c.356-.925.844-1.719 1.494-2.387s1.413-1.2 2.313-1.588c.894-.387 1.881-.581 2.975-.581 1.206 0 2.262.231 3.169.706.9.469 1.644 1.1 2.225 1.887s.994 1.694 1.25 2.706a10.26 10.26 0 0 1 .275 3.175H21.695c0 1.119.375 2.188.969 2.756zm4.493-7.487c-.462-.512-1.256-.794-2.212-.794-.625 0-1.144.106-1.556.319a3.167 3.167 0 0 0-.994.787c-.25.313-.425.65-.525 1.006-.1.344-.163.663-.181.938h6.375c-.094-1-.438-1.738-.906-2.256zM20.887 8h7.981v1.944h-7.981V8z"/></svg>