<svg version="1.1" xmlns="http://www.w3.org/2000/svg" width="32" height="32" viewBox="0 0 32 32"><path d="M22.642 12.232L28.281 0h-6.922l-4.621 10.025a11.274 11.274 0 0 0-1.476 0L10.641 0H3.719l5.639 12.232A10.983 10.983 0 0 0 5 21c0 6.075 4.925 11 11 11s11-4.925 11-11c0-3.58-1.71-6.759-4.358-8.768zM22.639 2h2.517l-4.222 9.162-.032-.011a10.907 10.907 0 0 0-2.114-.794L22.639 2zM6.844 2h2.517l3.851 8.357c-.738.193-1.445.46-2.114.794l-.032.011L6.844 2zM16 29a8 8 0 1 1 0-16 8 8 0 0 1 0 16z"/><path d="M19 16h-6a1 1 0 0 0 0 2h5v2h-5a1 1 0 0 0 0 2h5v2h-5a1 1 0 0 0 0 2h6a1 1 0 0 0 1-1v-8a1 1 0 0 0-1-1z"/></svg>