<svg version="1.1" xmlns="http://www.w3.org/2000/svg" width="32" height="32" viewBox="0 0 32 32"><path d="M31.988 8.563c-.144 3.113-2.319 7.381-6.525 12.794-4.35 5.65-8.031 8.481-11.044 8.481-1.863 0-3.444-1.719-4.731-5.163-.863-3.156-1.719-6.313-2.581-9.469-.956-3.444-1.981-5.162-3.081-5.162-.237 0-1.075.506-2.513 1.506L.007 9.612A391.952 391.952 0 0 0 4.676 5.45C6.782 3.631 8.364 2.675 9.42 2.575c2.487-.237 4.025 1.463 4.6 5.106.619 3.931 1.05 6.375 1.294 7.331.719 3.263 1.506 4.894 2.369 4.894.669 0 1.675-1.056 3.019-3.175 1.337-2.113 2.056-3.725 2.156-4.831.194-1.825-.525-2.744-2.156-2.744-.769 0-1.556.175-2.369.525 1.575-5.15 4.575-7.65 9.012-7.506 3.281.087 4.831 2.219 4.644 6.388z"/></svg>