<svg version="1.1" xmlns="http://www.w3.org/2000/svg" width="32" height="32" viewBox="0 0 32 32"><path d="M30.025 15.906a10.61 10.61 0 0 1-2.337.275c-4.038 0-7.144-2.819-7.144-7.725 0-2.406.931-3.65 2.244-3.65 1.25 0 2.081 1.119 2.081 3.394 0 1.294-.344 2.713-.6 3.55 0 0 1.244 2.169 4.644 1.506.725-1.606 1.113-3.681 1.113-5.5 0-4.9-2.5-7.756-7.081-7.756-4.713 0-7.469 3.619-7.469 8.394 0 4.731 2.212 8.787 5.856 10.637-1.531 3.069-3.481 5.769-5.519 7.806-3.688-4.462-7.025-10.413-8.394-22.031H1.975c2.519 19.35 10.012 25.512 12 26.694 1.119.675 2.088.644 3.112.063 1.613-.913 6.444-5.75 9.125-11.406 1.125 0 2.475-.131 3.819-.438v-3.813z"/></svg>