<svg version="1.1" xmlns="http://www.w3.org/2000/svg" width="32" height="32" viewBox="0 0 32 32"><path d="M15 2C6.716 2 0 8.716 0 17s6.716 15 15 15c8.284 0 15-6.716 15-15S23.284 2 15 2zm8.487 20c.268-1.264.437-2.606.492-4h3.983a12.866 12.866 0 0 1-.959 4h-3.516zM6.513 12a23.855 23.855 0 0 0-.492 4H2.038c.104-1.381.426-2.722.959-4h3.516zm14.926 0c.3 1.28.481 2.62.54 4H16v-4h5.439zM16 10V4.146c.456.133.908.355 1.351.668.831.586 1.625 1.488 2.298 2.609.465.775.867 1.638 1.203 2.578H16zm-5.649-2.578c.673-1.121 1.467-2.023 2.298-2.609A4.557 4.557 0 0 1 14 4.145v5.854H9.148c.336-.94.738-1.803 1.203-2.578zM14 12v4H8.021c.059-1.38.24-2.72.54-4H14zM2.997 22a12.894 12.894 0 0 1-.959-4h3.983c.055 1.394.224 2.736.492 4H2.997zm5.024-4H14v4H8.561c-.3-1.28-.481-2.62-.54-4zM14 24v5.854a4.557 4.557 0 0 1-1.351-.668c-.831-.586-1.625-1.488-2.298-2.609a14.478 14.478 0 0 1-1.203-2.578H14zm5.649 2.578c-.673 1.121-1.467 2.023-2.298 2.609a4.581 4.581 0 0 1-1.351.668v-5.854h4.852a14.51 14.51 0 0 1-1.203 2.578zM16 22v-4h5.979c-.059 1.38-.24 2.72-.54 4H16zm7.98-6a23.855 23.855 0 0 0-.492-4h3.516c.533 1.278.855 2.619.959 4H23.98zm1.978-6h-2.997c-.582-1.836-1.387-3.447-2.354-4.732a12.974 12.974 0 0 1 3.585 2.54A13.07 13.07 0 0 1 25.958 10zM5.808 7.808a12.974 12.974 0 0 1 3.585-2.54C8.426 6.553 7.622 8.164 7.039 10H4.042a12.97 12.97 0 0 1 1.766-2.192zM4.042 24h2.997c.583 1.836 1.387 3.447 2.354 4.732a12.974 12.974 0 0 1-3.585-2.54A13.07 13.07 0 0 1 4.042 24zm20.15 2.192a12.974 12.974 0 0 1-3.585 2.54c.967-1.285 1.771-2.896 2.354-4.732h2.997a12.97 12.97 0 0 1-1.766 2.192z"/></svg>