<!-- Generator: Adobe Illustrator 19.2.1, SVG Export Plug-In  -->
<svg version="1.1" xmlns="http://www.w3.org/2000/svg" xmlns:xlink="http://www.w3.org/1999/xlink" xmlns:a="http://ns.adobe.com/AdobeSVGViewerExtensions/3.0/" x="0px" y="0px" width="219px" height="107.7px" viewBox="0 0 219 107.7" style="enable-background:new 0 0 219 107.7;" aria-labelledby="title desc" aria-describedby="desc" role="img" xml:space="preserve">
	<title id="title">Split Infinities</title>
	<desc id="desc">William M. Riley</desc>
	<defs>
	</defs>
	<style type="text/css">
		.st0{fill:none;}
		.st1{fill:#E6E6E6;}

		line {
			stroke-width: 1.5px;
			stroke-dasharray: 60;
			stroke-dashoffset: 1250;
			transform-origin: 50% 50%;
			animation: dash 16s ease alternate infinite;
		}

		line:nth-of-type(1) {
			animation-delay: -4.5s;
		}

		line:nth-of-type(2) {
			animation-delay: -1.5s;
		}

		line:nth-of-type(3) {
			animation-delay: -3s;
		}

		line:nth-of-type(4) {
			animation-delay: -6s;
		}

		@keyframes dash {
			0% {
				stroke: #811d1d;
				stroke-dasharray: 20;
				stroke-dashoffset: 1500;
			}

			33.33333% {
				stroke: #fff;
				stroke-dasharray: 300;
				stroke-dashoffset: 0;
			}

			66.6666% {
				stroke: #fff;
				stroke-dasharray: 300;
				stroke-dashoffset: 0;
			}

			100% {
				stroke: #811d1d;
				stroke-dasharray: 20;
				stroke-dashoffset: 1500;
			}
		}

	</style>
	<defs>
	</defs>
	<g id="mark">
		<line id="large-top-line" class="st0" x1="181.3" y1="0" x2="112.8" y2="0"/>
		<line id="large-left-line" class="st0" x1="181.3" y1="0" x2="141.3" y2="72.5"/>
		<line id="large-right-line" class="st0" x1="155.3" y1="72.5" x2="112.8" y2="0"/>
		<line id="small-top-line" class="st0" x1="188.8" y1="12.5" x2="105.3" y2="12.5"/>
		<line id="small-left-line" class="st0" x1="188.8" y1="12.5" x2="155.3" y2="72.5"/>
		<line id="small-right-line" class="st0" x1="105.3" y1="12.5" x2="141.3" y2="72.5"/>
	</g>
	<g id="split">
		<path class="st1" d="M0,65.5l5.5-2.6c0.7,2.7,3.2,4.4,6,4.4c2.5,0,4.5-1.1,4.5-3.9c0-5-14.6-3.6-14.6-13.4c0-5.6,5.1-9.5,10.4-9.5c4.6,0,8,2,9.9,6.3l-5.5,2.6c-0.7-1.8-2.2-3.2-4.3-3.2S7.7,47.8,7.7,50c0,4.8,14.6,3.4,14.6,13.4c0,6.7-5.2,9.5-11.3,9.5C6.1,72.9,1.5,70.4,0,65.5z"/>
		<path class="st1" d="M26.9,41h13.6c5.2,0,8.9,4.8,8.9,9.7c0,5-3.6,9.6-8.9,9.6h-7.4v12.2h-6.2C26.9,72.5,26.9,41,26.9,41zM39.7,54.8c2.4,0,3.7-2.1,3.7-4.2s-1.3-4.1-3.7-4.1H33v8.3H39.7z"/>
		<path class="st1" d="M52.2,41h6.3v25.7h12v5.8H52.2V41z"/>
		<path class="st1" d="M74.3,41h6.3v31.5h-6.3V41z"/>
		<path class="st1" d="M92.7,46.5h-9.1V41h24.5v5.5H99v26h-6.3V46.5z"/>
	</g>
	<g id="infinities">
		<path class="st1" d="M16.7,77.2H23v31.5h-6.3V77.2z"/>
		<path class="st1" d="M28.4,77.2h3.4L49,96.7V77.2h6.1v31.5h-3.6l-17-19v19h-6.1V77.2z"/>
		<path class="st1" d="M60.6,77.2h19.2v5.5H66.9v7.4h11.3v5.5H66.9v13.1h-6.3C60.6,108.7,60.6,77.2,60.6,77.2z"/>
		<path class="st1" d="M83.1,77.2h6.3v31.5h-6.3V77.2z"/>
		<path class="st1" d="M94.8,77.2h3.4l17.2,19.5V77.2h6.1v31.5h-3.6l-17-19v19h-6.1C94.8,108.7,94.8,77.2,94.8,77.2z"/>
		<path class="st1" d="M127,77.2h6.3v31.5H127V77.2z"/>
		<path class="st1" d="M145.3,82.7h-9.1v-5.5h24.5v5.5h-9.1v26h-6.3L145.3,82.7L145.3,82.7z"/>
		<path class="st1" d="M163.6,77.2h6.3v31.5h-6.3V77.2z"/>
		<path class="st1" d="M175.4,77.2h19.2v5.5h-12.9v7.4H193v5.5h-11.3v7.6h12.9v5.5h-19.2V77.2z"/>
		<path class="st1" d="M196.6,101.8l5.5-2.6c0.7,2.7,3.2,4.4,6,4.4c2.5,0,4.5-1.1,4.5-3.9c0-5-14.6-3.6-14.6-13.4c0-5.6,5.1-9.5,10.4-9.5c4.6,0,8,2,9.9,6.3l-5.6,2.6c-0.7-1.8-2.2-3.2-4.3-3.2s-4.2,1.6-4.2,3.8c0,4.8,14.6,3.4,14.6,13.4c0,6.7-5.2,9.5-11.3,9.5C202.8,109.1,198.2,106.7,196.6,101.8z"/>
	</g>
</svg>
