<?xml version="1.0" encoding="utf-8"?>
<!-- Generator: Adobe Illustrator 19.1.0, SVG Export Plug-In . SVG Version: 6.00 Build 0)  -->
<svg version="1.1" id="Layer_1" xmlns="http://www.w3.org/2000/svg" xmlns:xlink="http://www.w3.org/1999/xlink" x="0px" y="0px"
	 viewBox="-243 246.7 11.4 9.3" style="enable-background:new -243 246.7 11.4 9.3;" xml:space="preserve">
<style type="text/css">
	.st0{fill:#3F7AB9;}
</style>
<g>
	<g>
		<g>
			<path class="st0" d="M-231.8,251.6L-231.8,251.6C-231.8,251.5-231.8,251.5-231.8,251.6L-231.8,251.6z"/>
		</g>
	</g>
	<g>
		<g>
			<path class="st0" d="M-231.8,251.6L-231.8,251.6C-231.8,251.5-231.8,251.5-231.8,251.6L-231.8,251.6z"/>
		</g>
	</g>
	<g>
		<g>
			<path class="st0" d="M-242.8,251.4c0-0.4,0.3-0.7,0.8-0.7h7.8l-2.5-2.5c-0.3-0.3-0.3-0.8,0-1.1c0.3-0.3,0.8-0.3,1.1,0l3.6,3.7
				c0.1,0.1,0.2,0.3,0.2,0.4v0.1v0.1v0.1l0,0c0,0.1-0.1,0.2-0.2,0.2l-3.7,3.9c-0.3,0.3-0.7,0.3-1,0c-0.3-0.3-0.3-0.8,0-1.1l2.4-2.4
				h-7.8C-242.5,252.1-242.8,251.8-242.8,251.4z"/>
		</g>
	</g>
</g>
</svg>
