<?xml version="1.0" encoding="utf-8"?>
<!-- Generated by IcoMoon.io -->
<!DOCTYPE svg PUBLIC "-//W3C//DTD SVG 1.1//EN" "http://www.w3.org/Graphics/SVG/1.1/DTD/svg11.dtd">
<svg version="1.1" xmlns="http://www.w3.org/2000/svg" xmlns:xlink="http://www.w3.org/1999/xlink" width="32" height="32" viewBox="0 0 32 32">
<path d="M22.642 12.232l5.639-12.232h-6.922l-4.621 10.025c-0.244-0.016-0.49-0.025-0.738-0.025s-0.494 0.009-0.738 0.025l-4.621-10.025h-6.922l5.639 12.232c-2.647 2.009-4.358 5.188-4.358 8.768 0 6.075 4.925 11 11 11s11-4.925 11-11c0-3.58-1.71-6.759-4.358-8.768zM22.639 2h2.517l-4.222 9.162-0.032-0.011c-0.669-0.334-1.376-0.601-2.114-0.794l3.851-8.357zM6.844 2h2.517l3.851 8.357c-0.738 0.193-1.445 0.46-2.114 0.794l-0.032 0.011-4.222-9.162zM16 29c-4.418 0-8-3.582-8-8s3.582-8 8-8 8 3.582 8 8-3.582 8-8 8z"></path>
<path d="M19 26h-6c-0.552 0-1-0.448-1-1v-4c0-0.552 0.448-1 1-1h5v-2h-5c-0.552 0-1-0.448-1-1s0.448-1 1-1h6c0.552 0 1 0.448 1 1v4c0 0.552-0.448 1-1 1h-5v2h5c0.552 0 1 0.448 1 1s-0.448 1-1 1z"></path>
</svg>
