<!-- Generator: Adobe Illustrator 18.0.0, SVG Export Plug-In  -->
<svg version="1.1" xmlns="http://www.w3.org/2000/svg" xmlns:xlink="http://www.w3.org/1999/xlink" xmlns:a="http://ns.adobe.com/AdobeSVGViewerExtensions/3.0/" x="0px" y="0px" width="19.8px" height="19.6px" viewBox="0 0 19.8 19.6" enable-background="new 0 0 19.8 19.6" xml:space="preserve"><defs> </defs><path fill="#005589" d="M19.3,16.7l-4.8-4.6c-0.3-0.3-0.8-0.5-1.2-0.5c-0.2,0-0.5,0-0.7,0.1c1-1.2,1.5-2.8,1.5-4.5c0-4-3.2-7.2-7.1-7.2C3.2,0,0,3.2,0,7.2c0,4,3.2,7.2,7.1,7.2c1.8,0,3.4-0.7,4.6-1.8c-0.2,0.6-0.1,1.3,0.4,1.8l4.8,4.6c0.3,0.3,0.8,0.5,1.2,0.5c0.4,0,0.9-0.2,1.2-0.5C20,18.4,20,17.3,19.3,16.7z M7.1,12.5C4.3,12.5,2,10.1,2,7.2C2,4.4,4.3,2,7.1,2c2.8,0,5.1,2.4,5.1,5.2C12.2,10.1,9.9,12.5,7.1,12.5z"/></svg>
